<mxfile host="Electron" agent="Mozilla/5.0 (Windows NT 10.0; Win64; x64) AppleWebKit/537.36 (KHTML, like Gecko) draw.io/24.7.17 Chrome/128.0.6613.36 Electron/32.0.1 Safari/537.36" version="24.7.17">
  <diagram id="10ifoi6bdJo_da6fG-TG" name="Page-1">
    <mxGraphModel dx="1022" dy="736" grid="1" gridSize="10" guides="1" tooltips="1" connect="1" arrows="1" fold="1" page="1" pageScale="1" pageWidth="850" pageHeight="1100" math="0" shadow="0">
      <root>
        <mxCell id="0" />
        <mxCell id="1" parent="0" />
        <mxCell id="oXJwfy2o2yNfhM5xkF7h-10" value="" style="group" parent="1" vertex="1" connectable="0">
          <mxGeometry x="40" y="40" width="232.5" height="400" as="geometry" />
        </mxCell>
        <mxCell id="oXJwfy2o2yNfhM5xkF7h-1" value="" style="html=1;verticalLabelPosition=bottom;labelBackgroundColor=#ffffff;verticalAlign=top;shadow=0;dashed=0;strokeWidth=1;shape=mxgraph.ios7.misc.iphone;strokeColor=#c0c0c0;" parent="oXJwfy2o2yNfhM5xkF7h-10" vertex="1">
          <mxGeometry width="200" height="400" as="geometry" />
        </mxCell>
        <mxCell id="oXJwfy2o2yNfhM5xkF7h-2" value="" style="html=1;verticalLabelPosition=bottom;labelBackgroundColor=#ffffff;verticalAlign=top;shadow=0;dashed=0;strokeWidth=2;shape=mxgraph.ios7.misc.options;fillColor=#222222;sketch=0;" parent="oXJwfy2o2yNfhM5xkF7h-10" vertex="1">
          <mxGeometry x="160" y="85" width="16" height="12" as="geometry" />
        </mxCell>
        <mxCell id="oXJwfy2o2yNfhM5xkF7h-3" value="" style="verticalLabelPosition=bottom;shadow=0;dashed=0;align=center;html=1;verticalAlign=top;strokeWidth=1;shape=mxgraph.mockup.graphics.simpleIcon;strokeColor=#999999;" parent="oXJwfy2o2yNfhM5xkF7h-10" vertex="1">
          <mxGeometry x="20" y="68" width="40" height="40" as="geometry" />
        </mxCell>
        <mxCell id="oXJwfy2o2yNfhM5xkF7h-4" value="" style="verticalLabelPosition=bottom;shadow=0;dashed=0;align=center;html=1;verticalAlign=top;strokeWidth=1;shape=mxgraph.mockup.navigation.coverFlow;strokeColor=#999999;" parent="oXJwfy2o2yNfhM5xkF7h-10" vertex="1">
          <mxGeometry x="25" y="130" width="150" height="60" as="geometry" />
        </mxCell>
        <mxCell id="oXJwfy2o2yNfhM5xkF7h-6" value="&lt;font style=&quot;font-size: 12px;&quot;&gt;Logo&lt;/font&gt;" style="text;strokeColor=none;fillColor=none;html=1;fontSize=12;fontStyle=1;verticalAlign=middle;align=center;" parent="oXJwfy2o2yNfhM5xkF7h-10" vertex="1">
          <mxGeometry x="19.99666666666667" y="76.4975471698113" width="40" height="23" as="geometry" />
        </mxCell>
        <mxCell id="oXJwfy2o2yNfhM5xkF7h-7" value="&lt;font style=&quot;font-size: 12px;&quot;&gt;Featured Aircraft&lt;/font&gt;" style="text;strokeColor=none;fillColor=none;html=1;fontSize=12;fontStyle=1;verticalAlign=middle;align=center;" parent="oXJwfy2o2yNfhM5xkF7h-10" vertex="1">
          <mxGeometry x="50.5" y="151.50204265791638" width="99" height="17" as="geometry" />
        </mxCell>
        <mxCell id="oXJwfy2o2yNfhM5xkF7h-8" value="Welcome" style="text;strokeColor=none;fillColor=none;html=1;fontSize=14;fontStyle=1;verticalAlign=middle;align=left;" parent="oXJwfy2o2yNfhM5xkF7h-10" vertex="1">
          <mxGeometry x="20" y="210" width="110" height="17" as="geometry" />
        </mxCell>
        <mxCell id="oXJwfy2o2yNfhM5xkF7h-9" value="&lt;font style=&quot;font-size: 11px;&quot;&gt;Lorem ipsum dolor sit amet, consectetur adipisicing elit, sed do eiusmod tempor incididunt ut labore et dolore magna aliqua. Excepteur sint occaecat cupidatat non proident, sunt in mollit anim id est laborum.&lt;/font&gt;&lt;div style=&quot;font-size: 11px;&quot;&gt;&lt;br&gt;&lt;/div&gt;" style="text;spacingTop=-5;whiteSpace=wrap;html=1;align=left;fontSize=12;fontFamily=Helvetica;fillColor=none;strokeColor=none;" parent="oXJwfy2o2yNfhM5xkF7h-10" vertex="1">
          <mxGeometry x="20" y="230" width="160" height="110" as="geometry" />
        </mxCell>
        <mxCell id="oXJwfy2o2yNfhM5xkF7h-79" value="" style="rounded=1;whiteSpace=wrap;html=1;shadow=0;fillColor=none;strokeColor=#ff0000;" parent="oXJwfy2o2yNfhM5xkF7h-10" vertex="1">
          <mxGeometry x="148.5" y="71" width="36.5" height="34" as="geometry" />
        </mxCell>
        <mxCell id="oXJwfy2o2yNfhM5xkF7h-11" value="" style="group" parent="1" vertex="1" connectable="0">
          <mxGeometry x="600" y="40" width="200" height="400" as="geometry" />
        </mxCell>
        <mxCell id="oXJwfy2o2yNfhM5xkF7h-12" value="" style="html=1;verticalLabelPosition=bottom;labelBackgroundColor=#ffffff;verticalAlign=top;shadow=0;dashed=0;strokeWidth=1;shape=mxgraph.ios7.misc.iphone;strokeColor=#c0c0c0;" parent="oXJwfy2o2yNfhM5xkF7h-11" vertex="1">
          <mxGeometry width="200" height="400" as="geometry" />
        </mxCell>
        <mxCell id="oXJwfy2o2yNfhM5xkF7h-13" value="" style="html=1;verticalLabelPosition=bottom;labelBackgroundColor=#ffffff;verticalAlign=top;shadow=0;dashed=0;strokeWidth=2;shape=mxgraph.ios7.misc.options;fillColor=#222222;sketch=0;" parent="oXJwfy2o2yNfhM5xkF7h-11" vertex="1">
          <mxGeometry x="160" y="85" width="16" height="12" as="geometry" />
        </mxCell>
        <mxCell id="oXJwfy2o2yNfhM5xkF7h-14" value="" style="verticalLabelPosition=bottom;shadow=0;dashed=0;align=center;html=1;verticalAlign=top;strokeWidth=1;shape=mxgraph.mockup.graphics.simpleIcon;strokeColor=#999999;" parent="oXJwfy2o2yNfhM5xkF7h-11" vertex="1">
          <mxGeometry x="20" y="68" width="40" height="40" as="geometry" />
        </mxCell>
        <mxCell id="oXJwfy2o2yNfhM5xkF7h-16" value="&lt;font style=&quot;font-size: 12px;&quot;&gt;Logo&lt;/font&gt;" style="text;strokeColor=none;fillColor=none;html=1;fontSize=12;fontStyle=1;verticalAlign=middle;align=center;" parent="oXJwfy2o2yNfhM5xkF7h-11" vertex="1">
          <mxGeometry x="19.99666666666667" y="76.4975471698113" width="40" height="23" as="geometry" />
        </mxCell>
        <mxCell id="oXJwfy2o2yNfhM5xkF7h-18" value="&lt;font style=&quot;font-size: 12px;&quot;&gt;Aircraft Name&lt;/font&gt;" style="text;strokeColor=none;fillColor=none;html=1;fontSize=14;fontStyle=1;verticalAlign=middle;align=center;" parent="oXJwfy2o2yNfhM5xkF7h-11" vertex="1">
          <mxGeometry x="45" y="205" width="110" height="17" as="geometry" />
        </mxCell>
        <mxCell id="oXJwfy2o2yNfhM5xkF7h-19" value="&lt;font style=&quot;font-size: 11px;&quot;&gt;Lorem ipsum dolor sit amet, consectetur adipisicing elit, sed do eiusmod tempor incididunt ut labore et dolore magna aliqua. Excepteur sint occaecat cupidatat non proident, sunt d est laborum.&lt;/font&gt;&lt;div style=&quot;font-size: 11px;&quot;&gt;&lt;br&gt;&lt;/div&gt;" style="text;spacingTop=-5;whiteSpace=wrap;html=1;align=left;fontSize=12;fontFamily=Helvetica;fillColor=none;strokeColor=none;" parent="oXJwfy2o2yNfhM5xkF7h-11" vertex="1">
          <mxGeometry x="20" y="230" width="150" height="110" as="geometry" />
        </mxCell>
        <mxCell id="oXJwfy2o2yNfhM5xkF7h-47" value="" style="verticalLabelPosition=bottom;shadow=0;dashed=0;align=center;html=1;verticalAlign=top;strokeWidth=1;shape=mxgraph.mockup.graphics.simpleIcon;strokeColor=#999999;" parent="oXJwfy2o2yNfhM5xkF7h-11" vertex="1">
          <mxGeometry x="50" y="160" width="100" height="40" as="geometry" />
        </mxCell>
        <mxCell id="oXJwfy2o2yNfhM5xkF7h-48" value="&lt;font style=&quot;font-size: 14px;&quot;&gt;Available Aircraft&lt;/font&gt;" style="text;strokeColor=none;fillColor=none;html=1;fontSize=14;fontStyle=1;verticalAlign=middle;align=left;" parent="oXJwfy2o2yNfhM5xkF7h-11" vertex="1">
          <mxGeometry x="20" y="120" width="130" height="25.47" as="geometry" />
        </mxCell>
        <mxCell id="oXJwfy2o2yNfhM5xkF7h-20" value="" style="group" parent="1" vertex="1" connectable="0">
          <mxGeometry x="320" y="480" width="200" height="452" as="geometry" />
        </mxCell>
        <mxCell id="oXJwfy2o2yNfhM5xkF7h-21" value="" style="html=1;verticalLabelPosition=bottom;labelBackgroundColor=#ffffff;verticalAlign=top;shadow=0;dashed=0;strokeWidth=1;shape=mxgraph.ios7.misc.iphone;strokeColor=#c0c0c0;" parent="oXJwfy2o2yNfhM5xkF7h-20" vertex="1">
          <mxGeometry width="200" height="400" as="geometry" />
        </mxCell>
        <mxCell id="oXJwfy2o2yNfhM5xkF7h-22" value="" style="html=1;verticalLabelPosition=bottom;labelBackgroundColor=#ffffff;verticalAlign=top;shadow=0;dashed=0;strokeWidth=2;shape=mxgraph.ios7.misc.options;fillColor=#222222;sketch=0;" parent="oXJwfy2o2yNfhM5xkF7h-20" vertex="1">
          <mxGeometry x="160" y="85" width="16" height="12" as="geometry" />
        </mxCell>
        <mxCell id="oXJwfy2o2yNfhM5xkF7h-23" value="" style="verticalLabelPosition=bottom;shadow=0;dashed=0;align=center;html=1;verticalAlign=top;strokeWidth=1;shape=mxgraph.mockup.graphics.simpleIcon;strokeColor=#999999;" parent="oXJwfy2o2yNfhM5xkF7h-20" vertex="1">
          <mxGeometry x="20" y="68" width="40" height="40" as="geometry" />
        </mxCell>
        <mxCell id="oXJwfy2o2yNfhM5xkF7h-25" value="&lt;font style=&quot;font-size: 12px;&quot;&gt;Logo&lt;/font&gt;" style="text;strokeColor=none;fillColor=none;html=1;fontSize=12;fontStyle=1;verticalAlign=middle;align=center;" parent="oXJwfy2o2yNfhM5xkF7h-20" vertex="1">
          <mxGeometry x="19.99666666666667" y="76.4975471698113" width="40" height="23" as="geometry" />
        </mxCell>
        <mxCell id="oXJwfy2o2yNfhM5xkF7h-27" value="Request Information" style="text;strokeColor=none;fillColor=none;html=1;fontSize=14;fontStyle=1;verticalAlign=middle;align=left;" parent="oXJwfy2o2yNfhM5xkF7h-20" vertex="1">
          <mxGeometry x="20" y="130" width="110" height="17" as="geometry" />
        </mxCell>
        <mxCell id="oXJwfy2o2yNfhM5xkF7h-28" value="&lt;font style=&quot;font-size: 11px;&quot;&gt;Lorem ipsum dolor sit amet, consectetur adipisicing elit, sed do eiusmod laborum.&lt;/font&gt;&lt;div style=&quot;font-size: 11px;&quot;&gt;&lt;br&gt;&lt;/div&gt;" style="text;spacingTop=-5;whiteSpace=wrap;html=1;align=left;fontSize=12;fontFamily=Helvetica;fillColor=none;strokeColor=none;" parent="oXJwfy2o2yNfhM5xkF7h-20" vertex="1">
          <mxGeometry x="20" y="148" width="160" height="50" as="geometry" />
        </mxCell>
        <mxCell id="oXJwfy2o2yNfhM5xkF7h-50" value="* First Name" style="strokeWidth=1;shadow=0;dashed=0;align=left;html=1;shape=mxgraph.mockup.forms.anchor;align=right;spacingRight=2;fontColor=#666666;" parent="oXJwfy2o2yNfhM5xkF7h-20" vertex="1">
          <mxGeometry x="24" y="196" width="71" height="18" as="geometry" />
        </mxCell>
        <mxCell id="oXJwfy2o2yNfhM5xkF7h-51" value="" style="strokeWidth=1;shadow=0;dashed=0;align=center;html=1;shape=mxgraph.mockup.forms.rrect;fillColor=#ffffff;rSize=0;fontColor=#666666;align=left;spacingLeft=3;strokeColor=#999999;" parent="oXJwfy2o2yNfhM5xkF7h-20" vertex="1">
          <mxGeometry x="24" y="214" width="155" height="18" as="geometry" />
        </mxCell>
        <mxCell id="oXJwfy2o2yNfhM5xkF7h-52" value="Last Name" style="strokeWidth=1;shadow=0;dashed=0;align=left;html=1;shape=mxgraph.mockup.forms.anchor;align=right;spacingRight=2;fontColor=#666666;" parent="oXJwfy2o2yNfhM5xkF7h-20" vertex="1">
          <mxGeometry x="24" y="232" width="62" height="18" as="geometry" />
        </mxCell>
        <mxCell id="oXJwfy2o2yNfhM5xkF7h-53" value="" style="strokeWidth=1;shadow=0;dashed=0;align=center;html=1;shape=mxgraph.mockup.forms.rrect;fillColor=#ffffff;rSize=0;fontColor=#666666;align=left;spacingLeft=3;strokeColor=#999999;" parent="oXJwfy2o2yNfhM5xkF7h-20" vertex="1">
          <mxGeometry x="24" y="249" width="155" height="18" as="geometry" />
        </mxCell>
        <mxCell id="oXJwfy2o2yNfhM5xkF7h-55" value="" style="strokeWidth=1;shadow=0;dashed=0;align=center;html=1;shape=mxgraph.mockup.forms.rrect;fillColor=#ffffff;rSize=0;fontColor=#666666;align=left;spacingLeft=3;strokeColor=#999999;" parent="oXJwfy2o2yNfhM5xkF7h-20" vertex="1">
          <mxGeometry x="24" y="285" width="155" height="18" as="geometry" />
        </mxCell>
        <mxCell id="oXJwfy2o2yNfhM5xkF7h-54" value="* Email" style="strokeWidth=1;shadow=0;dashed=0;align=left;html=1;shape=mxgraph.mockup.forms.anchor;align=right;spacingRight=2;fontColor=#666666;" parent="oXJwfy2o2yNfhM5xkF7h-20" vertex="1">
          <mxGeometry x="24" y="267" width="43" height="18" as="geometry" />
        </mxCell>
        <mxCell id="oXJwfy2o2yNfhM5xkF7h-57" value="* Message" style="strokeWidth=1;shadow=0;dashed=0;align=left;html=1;shape=mxgraph.mockup.forms.anchor;align=right;spacingRight=2;fontColor=#666666;" parent="oXJwfy2o2yNfhM5xkF7h-20" vertex="1">
          <mxGeometry x="24" y="303" width="60" height="18" as="geometry" />
        </mxCell>
        <mxCell id="oXJwfy2o2yNfhM5xkF7h-56" value="" style="strokeWidth=1;shadow=0;dashed=0;align=center;html=1;shape=mxgraph.mockup.forms.rrect;fillColor=#ffffff;rSize=0;fontColor=#666666;align=left;spacingLeft=3;strokeColor=#999999;verticalAlign=top;whiteSpace=wrap;" parent="oXJwfy2o2yNfhM5xkF7h-20" vertex="1">
          <mxGeometry x="24" y="322" width="155" height="18" as="geometry" />
        </mxCell>
        <mxCell id="oXJwfy2o2yNfhM5xkF7h-35" value="" style="group" parent="1" vertex="1" connectable="0">
          <mxGeometry x="320" y="40" width="200" height="400" as="geometry" />
        </mxCell>
        <mxCell id="oXJwfy2o2yNfhM5xkF7h-36" value="" style="html=1;verticalLabelPosition=bottom;labelBackgroundColor=#ffffff;verticalAlign=top;shadow=0;dashed=0;strokeWidth=1;shape=mxgraph.ios7.misc.iphone;strokeColor=#c0c0c0;" parent="oXJwfy2o2yNfhM5xkF7h-35" vertex="1">
          <mxGeometry width="200" height="400" as="geometry" />
        </mxCell>
        <mxCell id="oXJwfy2o2yNfhM5xkF7h-38" value="" style="verticalLabelPosition=bottom;shadow=0;dashed=0;align=center;html=1;verticalAlign=top;strokeWidth=1;shape=mxgraph.mockup.graphics.simpleIcon;strokeColor=#999999;" parent="oXJwfy2o2yNfhM5xkF7h-35" vertex="1">
          <mxGeometry x="20" y="68" width="40" height="40" as="geometry" />
        </mxCell>
        <mxCell id="oXJwfy2o2yNfhM5xkF7h-40" value="&lt;font style=&quot;font-size: 12px;&quot;&gt;Logo&lt;/font&gt;" style="text;strokeColor=none;fillColor=none;html=1;fontSize=12;fontStyle=1;verticalAlign=middle;align=center;" parent="oXJwfy2o2yNfhM5xkF7h-35" vertex="1">
          <mxGeometry x="19.99666666666667" y="76.4975471698113" width="40" height="23" as="geometry" />
        </mxCell>
        <mxCell id="oXJwfy2o2yNfhM5xkF7h-44" value="" style="group" parent="oXJwfy2o2yNfhM5xkF7h-35" vertex="1" connectable="0">
          <mxGeometry x="25" y="151" width="150" height="60" as="geometry" />
        </mxCell>
        <mxCell id="oXJwfy2o2yNfhM5xkF7h-39" value="" style="verticalLabelPosition=bottom;shadow=0;dashed=0;align=center;html=1;verticalAlign=top;strokeWidth=1;shape=mxgraph.mockup.navigation.coverFlow;strokeColor=#999999;" parent="oXJwfy2o2yNfhM5xkF7h-44" vertex="1">
          <mxGeometry width="150" height="60" as="geometry" />
        </mxCell>
        <mxCell id="oXJwfy2o2yNfhM5xkF7h-41" value="&lt;font style=&quot;font-size: 12px;&quot;&gt;Featured Aircraft&lt;/font&gt;" style="text;strokeColor=none;fillColor=none;html=1;fontSize=12;fontStyle=1;verticalAlign=middle;align=center;" parent="oXJwfy2o2yNfhM5xkF7h-44" vertex="1">
          <mxGeometry x="25.5" y="20.502042657916377" width="99" height="17" as="geometry" />
        </mxCell>
        <mxCell id="oXJwfy2o2yNfhM5xkF7h-29" value="" style="shape=rect;rSize=3;strokeColor=none;fillColor=none;gradientColor=none;shadow=0;html=1;" parent="oXJwfy2o2yNfhM5xkF7h-35" vertex="1">
          <mxGeometry x="120" y="70" width="60" height="70" as="geometry" />
        </mxCell>
        <mxCell id="oXJwfy2o2yNfhM5xkF7h-30" value="&lt;font style=&quot;font-size: 12px;&quot;&gt;Home&lt;/font&gt;" style="html=1;strokeWidth=1;shadow=0;dashed=0;shape=mxgraph.ios7ui.topButton;rSize=3;strokeColor=none;fontSize=8;fillColor=none;fontColor=#000000;resizeWidth=1;whiteSpace=wrap;align=right;" parent="oXJwfy2o2yNfhM5xkF7h-29" vertex="1">
          <mxGeometry width="56.34146341463414" height="20" relative="1" as="geometry">
            <mxPoint x="5" y="5" as="offset" />
          </mxGeometry>
        </mxCell>
        <mxCell id="oXJwfy2o2yNfhM5xkF7h-31" value="&lt;font style=&quot;font-size: 12px;&quot;&gt;Aircraft&lt;/font&gt;" style="shape=rect;html=1;strokeColor=none;fontSize=8;fillColor=none;fontColor=#000000;resizeWidth=1;whiteSpace=wrap;align=right;" parent="oXJwfy2o2yNfhM5xkF7h-29" vertex="1">
          <mxGeometry width="56.34146341463414" height="20" relative="1" as="geometry">
            <mxPoint x="5" y="25" as="offset" />
          </mxGeometry>
        </mxCell>
        <mxCell id="oXJwfy2o2yNfhM5xkF7h-32" value="&lt;font style=&quot;font-size: 12px;&quot;&gt;Contact&lt;/font&gt;" style="shape=rect;html=1;strokeColor=none;fontSize=8;fillColor=none;fontColor=#000000;resizeWidth=1;whiteSpace=wrap;align=right;" parent="oXJwfy2o2yNfhM5xkF7h-29" vertex="1">
          <mxGeometry width="56.34146341463414" height="20" relative="1" as="geometry">
            <mxPoint x="5" y="45" as="offset" />
          </mxGeometry>
        </mxCell>
        <mxCell id="oXJwfy2o2yNfhM5xkF7h-80" value="" style="rounded=1;whiteSpace=wrap;html=1;shadow=0;fillColor=none;strokeColor=#ff0000;" parent="oXJwfy2o2yNfhM5xkF7h-29" vertex="1">
          <mxGeometry x="16.75" y="25" width="45.5" height="20" as="geometry" />
        </mxCell>
        <mxCell id="oXJwfy2o2yNfhM5xkF7h-45" value="Welcome" style="text;strokeColor=none;fillColor=none;html=1;fontSize=14;fontStyle=1;verticalAlign=middle;align=left;" parent="oXJwfy2o2yNfhM5xkF7h-35" vertex="1">
          <mxGeometry x="20" y="230" width="110" height="17" as="geometry" />
        </mxCell>
        <mxCell id="oXJwfy2o2yNfhM5xkF7h-46" value="&lt;font style=&quot;font-size: 11px;&quot;&gt;Lorem ipsum dolor sit amet, consectetur adipisicing elit, sed do eiusmod tempor incididunt ut labore et dolore magna aliqua. Excepteur sint occaecat cupidatat non proident,&amp;nbsp;&lt;/font&gt;" style="text;spacingTop=-5;whiteSpace=wrap;html=1;align=left;fontSize=12;fontFamily=Helvetica;fillColor=none;strokeColor=none;" parent="oXJwfy2o2yNfhM5xkF7h-35" vertex="1">
          <mxGeometry x="20" y="250" width="160" height="90" as="geometry" />
        </mxCell>
        <mxCell id="oXJwfy2o2yNfhM5xkF7h-60" value="" style="group" parent="1" vertex="1" connectable="0">
          <mxGeometry x="40" y="480" width="200" height="452" as="geometry" />
        </mxCell>
        <mxCell id="oXJwfy2o2yNfhM5xkF7h-61" value="" style="html=1;verticalLabelPosition=bottom;labelBackgroundColor=#ffffff;verticalAlign=top;shadow=0;dashed=0;strokeWidth=1;shape=mxgraph.ios7.misc.iphone;strokeColor=#c0c0c0;" parent="oXJwfy2o2yNfhM5xkF7h-60" vertex="1">
          <mxGeometry width="200" height="400" as="geometry" />
        </mxCell>
        <mxCell id="oXJwfy2o2yNfhM5xkF7h-69" value="Last Name" style="strokeWidth=1;shadow=0;dashed=0;align=left;html=1;shape=mxgraph.mockup.forms.anchor;align=right;spacingRight=2;fontColor=#666666;" parent="oXJwfy2o2yNfhM5xkF7h-60" vertex="1">
          <mxGeometry x="24" y="80" width="62" height="18" as="geometry" />
        </mxCell>
        <mxCell id="oXJwfy2o2yNfhM5xkF7h-70" value="" style="strokeWidth=1;shadow=0;dashed=0;align=center;html=1;shape=mxgraph.mockup.forms.rrect;fillColor=#ffffff;rSize=0;fontColor=#666666;align=left;spacingLeft=3;strokeColor=#999999;" parent="oXJwfy2o2yNfhM5xkF7h-60" vertex="1">
          <mxGeometry x="24" y="97" width="155" height="18" as="geometry" />
        </mxCell>
        <mxCell id="oXJwfy2o2yNfhM5xkF7h-71" value="" style="strokeWidth=1;shadow=0;dashed=0;align=center;html=1;shape=mxgraph.mockup.forms.rrect;fillColor=#ffffff;rSize=0;fontColor=#666666;align=left;spacingLeft=3;strokeColor=#999999;" parent="oXJwfy2o2yNfhM5xkF7h-60" vertex="1">
          <mxGeometry x="24" y="133" width="155" height="18" as="geometry" />
        </mxCell>
        <mxCell id="oXJwfy2o2yNfhM5xkF7h-72" value="* Email" style="strokeWidth=1;shadow=0;dashed=0;align=left;html=1;shape=mxgraph.mockup.forms.anchor;align=right;spacingRight=2;fontColor=#666666;" parent="oXJwfy2o2yNfhM5xkF7h-60" vertex="1">
          <mxGeometry x="24" y="115" width="43" height="18" as="geometry" />
        </mxCell>
        <mxCell id="oXJwfy2o2yNfhM5xkF7h-73" value="* Message" style="strokeWidth=1;shadow=0;dashed=0;align=left;html=1;shape=mxgraph.mockup.forms.anchor;align=right;spacingRight=2;fontColor=#666666;" parent="oXJwfy2o2yNfhM5xkF7h-60" vertex="1">
          <mxGeometry x="24" y="151" width="60" height="18" as="geometry" />
        </mxCell>
        <mxCell id="oXJwfy2o2yNfhM5xkF7h-74" value="" style="strokeWidth=1;shadow=0;dashed=0;align=center;html=1;shape=mxgraph.mockup.forms.rrect;fillColor=#ffffff;rSize=0;fontColor=#666666;align=left;spacingLeft=3;strokeColor=#999999;verticalAlign=top;whiteSpace=wrap;" parent="oXJwfy2o2yNfhM5xkF7h-60" vertex="1">
          <mxGeometry x="24" y="170" width="155" height="81" as="geometry" />
        </mxCell>
        <mxCell id="oXJwfy2o2yNfhM5xkF7h-75" value="Submit" style="strokeWidth=1;shadow=0;dashed=0;align=center;html=1;shape=mxgraph.mockup.buttons.button;strokeColor=#666666;fontColor=#ffffff;mainText=;buttonStyle=round;fontSize=12;fontStyle=1;fillColor=#00009A;whiteSpace=wrap;labelBackgroundColor=none;" parent="oXJwfy2o2yNfhM5xkF7h-60" vertex="1">
          <mxGeometry x="55" y="261" width="90" height="29" as="geometry" />
        </mxCell>
        <mxCell id="oXJwfy2o2yNfhM5xkF7h-76" value="" style="endArrow=classic;html=1;rounded=0;strokeColor=#ff0000;strokeWidth=2;exitX=-0.004;exitY=0.504;exitDx=0;exitDy=0;exitPerimeter=0;entryX=1.012;entryY=0.504;entryDx=0;entryDy=0;entryPerimeter=0;" parent="1" source="oXJwfy2o2yNfhM5xkF7h-21" target="oXJwfy2o2yNfhM5xkF7h-61" edge="1">
          <mxGeometry width="50" height="50" relative="1" as="geometry">
            <mxPoint x="500" y="617.5" as="sourcePoint" />
            <mxPoint x="240" y="720" as="targetPoint" />
            <Array as="points" />
          </mxGeometry>
        </mxCell>
        <mxCell id="oXJwfy2o2yNfhM5xkF7h-77" value="Scroll" style="edgeLabel;html=1;align=center;verticalAlign=middle;resizable=0;points=[];" parent="oXJwfy2o2yNfhM5xkF7h-76" vertex="1" connectable="0">
          <mxGeometry x="-0.4368" y="1" relative="1" as="geometry">
            <mxPoint as="offset" />
          </mxGeometry>
        </mxCell>
        <mxCell id="oXJwfy2o2yNfhM5xkF7h-78" value="" style="endArrow=classic;html=1;rounded=0;strokeColor=#ff0000;strokeWidth=2;entryX=0.004;entryY=0.476;entryDx=0;entryDy=0;entryPerimeter=0;exitX=1;exitY=0.5;exitDx=0;exitDy=0;" parent="1" source="oXJwfy2o2yNfhM5xkF7h-79" target="oXJwfy2o2yNfhM5xkF7h-36" edge="1">
          <mxGeometry width="50" height="50" relative="1" as="geometry">
            <mxPoint x="290" y="160" as="sourcePoint" />
            <mxPoint x="320" y="230" as="targetPoint" />
            <Array as="points">
              <mxPoint x="280" y="128" />
              <mxPoint x="280" y="230" />
            </Array>
          </mxGeometry>
        </mxCell>
        <mxCell id="oXJwfy2o2yNfhM5xkF7h-81" value="" style="rounded=1;whiteSpace=wrap;html=1;shadow=0;fillColor=none;strokeColor=#ff0000;" parent="1" vertex="1">
          <mxGeometry x="456.75" y="157" width="45.5" height="20" as="geometry" />
        </mxCell>
        <mxCell id="oXJwfy2o2yNfhM5xkF7h-82" value="" style="endArrow=classic;html=1;rounded=0;strokeColor=#ff0000;strokeWidth=2;entryX=1.02;entryY=0.4;entryDx=0;entryDy=0;entryPerimeter=0;exitX=1;exitY=0.5;exitDx=0;exitDy=0;" parent="1" source="oXJwfy2o2yNfhM5xkF7h-81" target="oXJwfy2o2yNfhM5xkF7h-21" edge="1">
          <mxGeometry width="50" height="50" relative="1" as="geometry">
            <mxPoint x="510" y="230" as="sourcePoint" />
            <mxPoint x="606" y="332" as="targetPoint" />
            <Array as="points">
              <mxPoint x="540" y="167" />
              <mxPoint x="540" y="640" />
            </Array>
          </mxGeometry>
        </mxCell>
        <mxCell id="oXJwfy2o2yNfhM5xkF7h-83" value="" style="endArrow=classic;html=1;rounded=0;strokeColor=#ff0000;strokeWidth=2;entryX=-0.006;entryY=0.436;entryDx=0;entryDy=0;entryPerimeter=0;exitX=1;exitY=0.5;exitDx=0;exitDy=0;" parent="1" source="oXJwfy2o2yNfhM5xkF7h-80" target="oXJwfy2o2yNfhM5xkF7h-12" edge="1">
          <mxGeometry width="50" height="50" relative="1" as="geometry">
            <mxPoint x="520" y="140" as="sourcePoint" />
            <mxPoint x="616" y="242" as="targetPoint" />
            <Array as="points">
              <mxPoint x="575" y="145" />
              <mxPoint x="575" y="214" />
            </Array>
          </mxGeometry>
        </mxCell>
        <mxCell id="oXJwfy2o2yNfhM5xkF7h-84" value="" style="group" parent="1" vertex="1" connectable="0">
          <mxGeometry x="600" y="480" width="200" height="400" as="geometry" />
        </mxCell>
        <mxCell id="oXJwfy2o2yNfhM5xkF7h-85" value="" style="html=1;verticalLabelPosition=bottom;labelBackgroundColor=#ffffff;verticalAlign=top;shadow=0;dashed=0;strokeWidth=1;shape=mxgraph.ios7.misc.iphone;strokeColor=#c0c0c0;" parent="oXJwfy2o2yNfhM5xkF7h-84" vertex="1">
          <mxGeometry width="200" height="400" as="geometry" />
        </mxCell>
        <mxCell id="oXJwfy2o2yNfhM5xkF7h-90" value="&lt;font style=&quot;font-size: 11px;&quot;&gt;&amp;nbsp;proident, sunt d est laborum.&lt;/font&gt;&lt;div style=&quot;font-size: 11px;&quot;&gt;&lt;br&gt;&lt;/div&gt;" style="text;spacingTop=-5;whiteSpace=wrap;html=1;align=left;fontSize=12;fontFamily=Helvetica;fillColor=none;strokeColor=none;" parent="oXJwfy2o2yNfhM5xkF7h-84" vertex="1">
          <mxGeometry x="25" y="60" width="150" height="20" as="geometry" />
        </mxCell>
        <mxCell id="oXJwfy2o2yNfhM5xkF7h-94" value="" style="group" parent="oXJwfy2o2yNfhM5xkF7h-84" vertex="1" connectable="0">
          <mxGeometry x="40" y="82" width="110" height="62" as="geometry" />
        </mxCell>
        <mxCell id="oXJwfy2o2yNfhM5xkF7h-89" value="&lt;font style=&quot;font-size: 12px;&quot;&gt;Aircraft Name&lt;/font&gt;" style="text;strokeColor=none;fillColor=none;html=1;fontSize=14;fontStyle=1;verticalAlign=middle;align=center;" parent="oXJwfy2o2yNfhM5xkF7h-94" vertex="1">
          <mxGeometry y="51" width="110" height="17" as="geometry" />
        </mxCell>
        <mxCell id="oXJwfy2o2yNfhM5xkF7h-91" value="" style="verticalLabelPosition=bottom;shadow=0;dashed=0;align=center;html=1;verticalAlign=top;strokeWidth=1;shape=mxgraph.mockup.graphics.simpleIcon;strokeColor=#999999;" parent="oXJwfy2o2yNfhM5xkF7h-94" vertex="1">
          <mxGeometry x="5" y="6" width="100" height="40" as="geometry" />
        </mxCell>
        <mxCell id="oXJwfy2o2yNfhM5xkF7h-93" value="&lt;div style=&quot;font-size: 11px;&quot;&gt;Lorem ipsum dolor sit amet, consectetur adipisicing elit, sed do eiusmod tempor incididunt ut labore et dolore magna aliqua. Excepteur sint occaecat cupidatat non proident, sunt in mollit anim id est laborum.&lt;div&gt;&lt;br&gt;&lt;/div&gt;&lt;/div&gt;" style="text;spacingTop=-5;whiteSpace=wrap;html=1;align=left;fontSize=12;fontFamily=Helvetica;fillColor=none;strokeColor=none;" parent="oXJwfy2o2yNfhM5xkF7h-84" vertex="1">
          <mxGeometry x="25" y="152" width="150" height="110" as="geometry" />
        </mxCell>
        <mxCell id="oXJwfy2o2yNfhM5xkF7h-99" value="" style="group" parent="oXJwfy2o2yNfhM5xkF7h-84" vertex="1" connectable="0">
          <mxGeometry x="40" y="270" width="110" height="62" as="geometry" />
        </mxCell>
        <mxCell id="oXJwfy2o2yNfhM5xkF7h-100" value="&lt;font style=&quot;font-size: 12px;&quot;&gt;Aircraft Name&lt;/font&gt;" style="text;strokeColor=none;fillColor=none;html=1;fontSize=14;fontStyle=1;verticalAlign=middle;align=center;" parent="oXJwfy2o2yNfhM5xkF7h-99" vertex="1">
          <mxGeometry y="51" width="110" height="17" as="geometry" />
        </mxCell>
        <mxCell id="oXJwfy2o2yNfhM5xkF7h-101" value="" style="verticalLabelPosition=bottom;shadow=0;dashed=0;align=center;html=1;verticalAlign=top;strokeWidth=1;shape=mxgraph.mockup.graphics.simpleIcon;strokeColor=#999999;" parent="oXJwfy2o2yNfhM5xkF7h-99" vertex="1">
          <mxGeometry x="5" y="6" width="100" height="40" as="geometry" />
        </mxCell>
        <mxCell id="oXJwfy2o2yNfhM5xkF7h-97" value="" style="endArrow=classic;html=1;rounded=0;strokeColor=#ff0000;strokeWidth=2;exitX=0.992;exitY=0.488;exitDx=0;exitDy=0;exitPerimeter=0;entryX=1.008;entryY=0.63;entryDx=0;entryDy=0;entryPerimeter=0;" parent="1" source="oXJwfy2o2yNfhM5xkF7h-12" target="oXJwfy2o2yNfhM5xkF7h-85" edge="1">
          <mxGeometry width="50" height="50" relative="1" as="geometry">
            <mxPoint x="899" y="422" as="sourcePoint" />
            <mxPoint x="820" y="460" as="targetPoint" />
            <Array as="points">
              <mxPoint x="820" y="235" />
              <mxPoint x="820" y="732" />
            </Array>
          </mxGeometry>
        </mxCell>
        <mxCell id="oXJwfy2o2yNfhM5xkF7h-98" value="Scroll" style="edgeLabel;html=1;align=center;verticalAlign=middle;resizable=0;points=[];" parent="oXJwfy2o2yNfhM5xkF7h-97" vertex="1" connectable="0">
          <mxGeometry x="-0.4368" y="1" relative="1" as="geometry">
            <mxPoint as="offset" />
          </mxGeometry>
        </mxCell>
      </root>
    </mxGraphModel>
  </diagram>
</mxfile>
